# xmcd
#
# Track frame offsets: 
#        150
#        11690
#        25997
#        39415
#        55946
#        71484
#        82992
#        101308
#        120305
#        136266
#        150797
#        169632
#        195395
#        212367
#        229554
#        252195
#        263477
#        281731
#        298645
#        313816
#
# Disc length: 4493 seconds
#
# Revision: 2
# Processed by: cddbd v1.5.2PL0 Copyright (c) Steve Scherf et al.
# Submitted via: ExactAudioCopy v1.1
#
DISCID=fa118b14
DTITLE=Reidar Larsen - Mr. Blues Is Coming To Town - Best Of
DYEAR=2003
DGENRE=Blues
TTITLE0=I'm A Bluesman
TTITLE1=Big Fat Mama
TTITLE2=She's Dynamite
TTITLE3=Christina
TTITLE4=She Felt Too Good
TTITLE5=Don't Have To Be Black To Be Blue
TTITLE6=Last Train Home
TTITLE7=Daddy Longlegs
TTITLE8=Boogie Woman
TTITLE9=Roll 'em Pete
TTITLE10=Rain Rain Rain
TTITLE11=Robbery
TTITLE12=Mr. Blues Is Coming To Town
TTITLE13=Hole In The Wall
TTITLE14=Story Teller
TTITLE15=No Money Honey
TTITLE16=Judge and Jury
TTITLE17=This One's On Me
TTITLE18=Merry-Go-Round
TTITLE19=Going To Milwaukee
EXTD=
EXTT0=
EXTT1=
EXTT2=
EXTT3=
EXTT4=
EXTT5=
EXTT6=
EXTT7=
EXTT8=
EXTT9=
EXTT10=
EXTT11=
EXTT12=
EXTT13=
EXTT14=
EXTT15=
EXTT16=
EXTT17=
EXTT18=
EXTT19=
PLAYORDER=
